<?xml version="1.0" encoding="utf-8"?>
<!-- Generator: Adobe Illustrator 25.4.1, SVG Export Plug-In . SVG Version: 6.00 Build 0)  -->
<svg version="1.1" id="Layer_1" xmlns="http://www.w3.org/2000/svg" xmlns:xlink="http://www.w3.org/1999/xlink" x="0px" y="0px"
	 viewBox="0 0 24 24" style="enable-background:new 0 0 24 24;" xml:space="preserve">
<g id="Guide">
</g>
<g>
	<path d="M12,1.4C6.2,1.4,1.4,6.2,1.4,12S6.2,22.6,12,22.6S22.6,17.8,22.6,12S17.8,1.4,12,1.4z M12,20.7c-4.8,0-8.7-3.9-8.7-8.7
		S7.2,3.3,12,3.3s8.7,3.9,8.7,8.7S16.8,20.7,12,20.7z"/>
	<path d="M12.8,5.9C11,5.5,9.1,6.5,8.6,8.2C8.5,8.5,8.6,8.7,8.7,9C8.8,9.2,9,9.4,9.2,9.4c0.5,0.2,1-0.1,1.2-0.6
		c0.2-0.7,1.1-1.3,1.9-1.1c0.8,0.2,1.3,1.1,1.2,1.8c-0.1,0.8-1,1.4-1.7,1.3c-0.3,0-0.5,0.1-0.7,0.2c-0.2,0.2-0.3,0.4-0.3,0.7l0,2.7
		c0,0.5,0.4,1,1,1s1-0.4,1-0.9l0-1.8c1.4-0.3,2.5-1.4,2.8-2.8C15.7,8.2,14.5,6.3,12.8,5.9z"/>
	<path d="M11.7,16.1L11.7,16.1c-0.5,0-0.9,0.4-1,1v0.2c0,0.5,0.4,0.9,0.9,0.9h0c0.5,0,0.9-0.5,1-1l0-0.1
		C12.6,16.5,12.2,16.1,11.7,16.1z"/>
</g>
</svg>
