<?xml version="1.0" encoding="utf-8"?>
<!-- Generator: Adobe Illustrator 25.4.1, SVG Export Plug-In . SVG Version: 6.00 Build 0)  -->
<svg version="1.1" id="Layer_1" xmlns="http://www.w3.org/2000/svg" xmlns:xlink="http://www.w3.org/1999/xlink" x="0px" y="0px"
	 viewBox="0 0 24 24" style="enable-background:new 0 0 24 24;" xml:space="preserve">
<style type="text/css">
	.st0{fill-rule:evenodd;clip-rule:evenodd;}
</style>
<path d="M20.4,2.7h-2.3V2.1c0-0.2-0.1-0.3-0.3-0.3h-1.1c-0.2,0-0.3,0.1-0.3,0.3v0.7H7.6V2.1c0-0.2-0.1-0.3-0.3-0.3H6.2
	C6,1.8,5.9,1.9,5.9,2.1v0.7H3.6c-1.1,0-1.9,0.8-1.9,1.9v15.7c0,1.1,0.8,1.9,1.9,1.9h16.8c1.1,0,1.9-0.8,1.9-1.9V4.6
	C22.3,3.5,21.5,2.7,20.4,2.7z M20.6,9.7v10.8H3.4V9.7H20.6z M6.2,5.5h1.1c0.2,0,0.3-0.1,0.3-0.3V4.5h8.8v0.7c0,0.2,0.1,0.3,0.3,0.3
	h1.1c0.2,0,0.3-0.1,0.3-0.3V4.5h2.5v3.5H3.4V4.5h2.4v0.7C5.9,5.4,6,5.5,6.2,5.5z"/>
<rect x="6.8" y="12" class="st0" width="2.1" height="2.1"/>
<rect x="11" y="12" class="st0" width="2.1" height="2.1"/>
<rect x="15.1" y="12" class="st0" width="2.1" height="2.1"/>
<rect x="6.8" y="16.2" class="st0" width="2.1" height="2.1"/>
<rect x="11" y="16.2" class="st0" width="2.1" height="2.1"/>
</svg>
