<?xml version="1.0" encoding="utf-8"?>
<!-- Generator: Adobe Illustrator 25.4.1, SVG Export Plug-In . SVG Version: 6.00 Build 0)  -->
<svg version="1.1" id="Layer_1" xmlns="http://www.w3.org/2000/svg" xmlns:xlink="http://www.w3.org/1999/xlink" x="0px" y="0px"
	 viewBox="0 0 24 24" style="enable-background:new 0 0 24 24;" xml:space="preserve">
<path d="M23,8.5C22.9,8.2,22.7,8,22.4,8L12.6,3c-0.4-0.2-0.8-0.2-1.2,0L1.6,8C1.4,8,1.2,8.2,1.1,8.4C1,8.6,1,8.8,1,9
	c0.1,0.2,0.3,0.4,0.4,0.5L2.6,10v7.8c-0.1,0.1-0.2,0.2-0.2,0.3l-0.6,1.3c-0.3,0.6,0,1.3,0.5,1.5c0.2,0.1,0.3,0.1,0.5,0.1h1.3
	c0,0,0,0,0,0c0.3,0,0.6-0.1,0.8-0.3c0.2-0.2,0.3-0.5,0.3-0.8c0-0.2,0-0.4-0.1-0.5l-0.6-1.3c-0.1-0.1-0.1-0.2-0.2-0.3v-6.9l0.6,0.3
	v3.7c0,1.1,0.8,2.1,2.2,2.9c1.3,0.6,3,1,4.8,1c1.8,0,3.5-0.4,4.8-1c1.4-0.7,2.2-1.7,2.2-2.9v-3.7l3.4-1.7c0.2-0.1,0.4-0.2,0.5-0.4
	C23,8.9,23,8.7,23,8.5z M6.6,12l4.8,2.4c0.4,0.2,0.8,0.2,1.2,0l4.8-2.4v2.9c0,0.5-0.5,1-1.3,1.4c-1.1,0.5-2.5,0.8-4.1,0.8
	s-3-0.3-4.1-0.8c-0.8-0.4-1.3-0.9-1.3-1.4V12z M3.7,8.7L12,4.6l8.3,4.1L12,12.9L3.7,8.7z"/>
</svg>
