<?xml version="1.0" encoding="utf-8"?>
<!-- Generator: Adobe Illustrator 25.4.1, SVG Export Plug-In . SVG Version: 6.00 Build 0)  -->
<svg version="1.1" id="Layer_1" xmlns="http://www.w3.org/2000/svg" xmlns:xlink="http://www.w3.org/1999/xlink" x="0px" y="0px"
	 viewBox="0 0 24 24" style="enable-background:new 0 0 24 24;" xml:space="preserve">
<g>
	<path d="M15.5,22.3H12c-0.5,0-0.9-0.4-0.9-0.9v-4c0-0.5,0.4-0.9,0.9-0.9s0.9,0.4,0.9,0.9v3.2h1.8v-3c0-0.5,0.4-0.9,0.9-0.9h0.7
		v-3.1H10c-0.4,0-0.7-0.2-0.8-0.6L7.9,9.3H2.7V14h0.6c0.5,0,0.9,0.4,0.9,0.9v5.7h2.6v-4.8c0-0.5,0.4-0.9,0.9-0.9s0.9,0.4,0.9,0.9
		v5.7c0,0.5-0.4,0.9-0.9,0.9H3.2c-0.5,0-0.9-0.4-0.9-0.9v-5.7H1.8c-0.5,0-0.9-0.4-0.9-0.9V8.5c0-0.5,0.4-0.9,0.9-0.9h6.7
		c0.4,0,0.7,0.2,0.8,0.6l1.3,3.6H17c0.5,0,0.9,0.4,0.9,0.9v4.9c0,0.5-0.4,0.9-0.9,0.9h-0.7v3C16.4,21.9,16,22.3,15.5,22.3z"/>
</g>
<g>
	<path d="M20,22.3c-0.5,0-0.9-0.4-0.9-0.9v-6.5c0-0.5,0.4-0.9,0.9-0.9h1.2V9.3h-3.1c-0.5,0-0.9-0.4-0.9-0.9s0.4-0.9,0.9-0.9h4
		C22.6,7.6,23,8,23,8.5v6.4c0,0.5-0.4,0.9-0.9,0.9h-1.2v5.7C20.9,21.9,20.5,22.3,20,22.3z"/>
</g>
<g>
	<path d="M5.5,7C3.9,7,2.7,5.7,2.7,4.2s1.3-2.8,2.8-2.8s2.8,1.3,2.8,2.8S7.1,7,5.5,7z M5.5,2.8c-0.7,0-1.3,0.6-1.3,1.3
		s0.6,1.3,1.3,1.3s1.3-0.6,1.3-1.3S6.2,2.8,5.5,2.8z"/>
</g>
<g>
	<path d="M18.5,7c-1.6,0-2.8-1.3-2.8-2.8s1.3-2.8,2.8-2.8s2.8,1.3,2.8,2.8S20.1,7,18.5,7z M18.5,2.8c-0.7,0-1.3,0.6-1.3,1.3
		s0.6,1.3,1.3,1.3s1.3-0.6,1.3-1.3S19.2,2.8,18.5,2.8z"/>
</g>
<g>
	<path d="M13.8,11.4c-1.5,0-2.7-1.2-2.7-2.7S12.3,6,13.8,6c1.5,0,2.7,1.2,2.7,2.7S15.3,11.4,13.8,11.4z M13.8,7.5
		c-0.6,0-1.2,0.5-1.2,1.2s0.5,1.2,1.2,1.2c0.6,0,1.2-0.5,1.2-1.2S14.4,7.5,13.8,7.5z"/>
</g>
</svg>
