<?xml version="1.0" encoding="utf-8"?>
<!-- Generator: Adobe Illustrator 25.4.1, SVG Export Plug-In . SVG Version: 6.00 Build 0)  -->
<svg version="1.1" id="Layer_1" xmlns="http://www.w3.org/2000/svg" xmlns:xlink="http://www.w3.org/1999/xlink" x="0px" y="0px"
	 viewBox="0 0 24 24" style="enable-background:new 0 0 24 24;" xml:space="preserve">
<path d="M21.4,7.1h-3.7c1.1-1.3,1-3.3-0.2-4.6c-1.3-1.3-3.5-1.3-4.8,0C12.4,2.7,12.2,3,12,3.4c-0.2-0.3-0.4-0.6-0.6-0.9
	c-1.3-1.3-3.5-1.3-4.8,0c-0.6,0.6-1,1.5-1,2.4c0,0.8,0.3,1.6,0.8,2.2H2.6c-0.9,0-1.7,0.8-1.7,1.7v3.4c0,0.9,0.8,1.7,1.7,1.7v6.8
	c0,0.9,0.8,1.7,1.7,1.7h15.4c0.9,0,1.7-0.8,1.7-1.7v-6.8c0.9,0,1.7-0.8,1.7-1.7V8.8C23.1,7.9,22.4,7.1,21.4,7.1z M13.8,3.7
	c0.3-0.3,0.8-0.5,1.2-0.5c0.4,0,0.9,0.2,1.2,0.5c0.7,0.7,0.7,1.8,0,2.4c-0.5,0.5-2.1,0.8-3.3,0.9C13,5.8,13.3,4.2,13.8,3.7z
	 M7.8,3.7C8.4,3,9.5,3,10.2,3.7c0.5,0.5,0.8,2.1,0.9,3.4C9.8,7,8.3,6.7,7.8,6.1C7.4,5.8,7.3,5.4,7.3,4.9C7.3,4.5,7.4,4,7.8,3.7z
	 M2.6,8.8C2.6,8.8,2.6,8.8,2.6,8.8l8.6,0v3.4H2.6L2.6,8.8z M4.3,13.9h6.8v6.8H4.3V13.9z M19.7,20.8h-6.8v-6.8h6.8V20.8z M21.4,12.2
	h-8.6V8.8h8.6V12.2z"/>
</svg>
