<?xml version="1.0" encoding="utf-8"?>
<!-- Generator: Adobe Illustrator 25.4.1, SVG Export Plug-In . SVG Version: 6.00 Build 0)  -->
<svg version="1.1" id="Layer_1" xmlns="http://www.w3.org/2000/svg" xmlns:xlink="http://www.w3.org/1999/xlink" x="0px" y="0px"
	 viewBox="0 0 24 24" style="enable-background:new 0 0 24 24;" xml:space="preserve">
<g id="Layer_22">
	<path d="M23.3,10c0.1-0.6,0.2-1.1,0.2-1.7c0-3.7-3-6.7-6.7-6.7h-0.1c-1.8,0-3.5,0.7-4.7,2c-1.3-1.2-3-1.9-4.8-1.9
		c-3.8,0-6.8,3.2-6.8,6.9c0,0.5,0.1,1,0.2,1.5c-0.2,0.2-0.4,0.4-0.4,0.7c0,0.5,0.4,0.8,0.8,0.8h0c0.3,0.7,0.8,1.3,1.3,1.8l9.1,8.9
		c0.2,0.2,0.4,0.2,0.6,0.2c0.2,0,0.4-0.1,0.6-0.3l8.9-9.2c0.4-0.4,0.8-1,1.1-1.5h0.2c0.5,0,0.8-0.4,0.8-0.8
		C23.8,10.4,23.6,10.1,23.3,10z M3.6,4.8c2-2,5.3-2.1,7.3-0.1c0,0,0,0,0,0c0.1,0.1,0.3,0.3,0.4,0.5c0,0.1,0.1,0.1,0.1,0.1
		c0.4,0.3,0.9,0.3,1.2-0.1l0.1-0.1C12.9,5,13,4.9,13.1,4.7c0.9-1,2.2-1.5,3.6-1.5h0.1c2.8,0,5.1,2.2,5.1,5c0,0.5-0.1,1.1-0.3,1.6
		l-7.7-0.1l0,0c-0.3,0-0.6,0.2-0.8,0.5l-0.3-1.1c-0.1-0.3-0.3-0.5-0.5-0.6c-0.3-0.1-0.5-0.1-0.8,0.1l-1.1,0.7L9.3,6
		C9.2,5.7,9,5.5,8.6,5.5C8.3,5.4,8,5.5,7.8,5.8L4.9,9.7L2.3,9.8C1.8,8,2.3,6.1,3.6,4.8z M20.4,11.9c-0.1,0.2-8.3,8.6-8.3,8.6
		s-8.3-8.2-8.5-8.3c-0.2-0.2-0.4-0.4-0.6-0.7l2.3-0.1c0.3,0,0.5-0.1,0.7-0.3l2.2-3l1,2.9c0.1,0.2,0.3,0.4,0.5,0.5
		c0.2,0.1,0.5,0,0.7-0.1l1-0.7l0.7,2.4c0.1,0.4,0.4,0.6,0.8,0.6h0c0.3,0,0.7-0.2,0.8-0.5l0.7-1.8l6.2,0.1
		C20.6,11.6,20.5,11.7,20.4,11.9z"/>
</g>
</svg>
