<?xml version="1.0" encoding="utf-8"?>
<!-- Generator: Adobe Illustrator 25.4.1, SVG Export Plug-In . SVG Version: 6.00 Build 0)  -->
<svg version="1.1" id="Layer_1" xmlns="http://www.w3.org/2000/svg" xmlns:xlink="http://www.w3.org/1999/xlink" x="0px" y="0px"
	 viewBox="0 0 24 24" style="enable-background:new 0 0 24 24;" xml:space="preserve">
<path d="M23.1,11.4l-2.8-2.8c0,0,0,0,0,0l-7.7-7.7c-0.3-0.3-0.9-0.3-1.2,0L3.7,8.6c0,0,0,0,0,0l-2.8,2.8c-0.3,0.3-0.3,0.9,0,1.2
	s0.9,0.3,1.2,0l1.3-1.3v11.2c0,0.5,0.4,0.9,0.9,0.9h4.2h7h4.2c0.5,0,0.9-0.4,0.9-0.9V11.3l1.3,1.3c0.2,0.2,0.4,0.3,0.6,0.3
	s0.4-0.1,0.6-0.3C23.5,12.3,23.5,11.7,23.1,11.4z M9.4,21.6V15h5.2v6.7H9.4z M18.8,21.6h-2.5v-7.5c0-0.5-0.4-0.9-0.9-0.9h-7
	c-0.5,0-0.9,0.4-0.9,0.9v7.5H5.2V9.6L12,2.7l6.8,6.8V21.6z"/>
</svg>
