<?xml version="1.0" encoding="utf-8"?>
<!-- Generator: Adobe Illustrator 25.4.1, SVG Export Plug-In . SVG Version: 6.00 Build 0)  -->
<svg version="1.1" id="Layer_1" xmlns="http://www.w3.org/2000/svg" xmlns:xlink="http://www.w3.org/1999/xlink" x="0px" y="0px"
	 viewBox="0 0 24 24" style="enable-background:new 0 0 24 24;" xml:space="preserve">
<path d="M22.2,6.4h-0.7V5.7c0-0.3-0.3-0.6-0.6-0.6h-1V4.5c0-0.3-0.2-0.6-0.6-0.6c-4.2-0.3-6.4,1.7-7.3,2.8c-0.9-1.1-3.1-3.1-7.3-2.8
	c-0.3,0-0.6,0.3-0.6,0.6v0.6h-1c-0.3,0-0.6,0.3-0.6,0.6v0.7H1.8C1.5,6.4,1.2,6.7,1.2,7v12.6c0,0.3,0.3,0.6,0.6,0.6c0,0,0.1,0,0.1,0
	c0.1,0,7-1.5,9.8-0.3l0.1,0c0,0,0.1,0,0.2,0c0,0,0.1,0,0.1,0l0.1,0l0.1,0c2.8-1.2,9.7,0.3,9.8,0.3c0,0,0.1,0,0.1,0
	c0.3,0,0.6-0.3,0.6-0.6V7C22.7,6.7,22.5,6.4,22.2,6.4z M18.5,16.6c0.2,0,0.5,0,0.7,0c0.2,0,0.3,0,0.4-0.2c0.1-0.1,0.2-0.3,0.2-0.4
	V6.3l0.4,0v10.9c-1-0.2-3-0.4-5.6,0.4C15.6,17,16.9,16.6,18.5,16.6z M12.6,17.7V7.9c0.4-0.6,2-2.9,6-2.9c0,0,0.1,0,0.1,0v10.4
	c0,0-0.1,0-0.1,0C15.5,15.4,13.6,16.7,12.6,17.7z M21.6,18.8c-1-0.2-2.7-0.5-4.5-0.6c2.2-0.3,3.6,0.2,3.6,0.2c0.1,0.1,0.3,0,0.5,0
	c0.1-0.1,0.2-0.2,0.3-0.3c0-0.1,0-0.1,0-0.2V7.6h0.1L21.6,18.8z M3.2,18.5c0.1,0,0.1,0,0.2,0c0,0,1.4-0.5,3.6-0.2
	c-1.8,0.1-3.5,0.4-4.5,0.6V7.6h0.1v10.3C2.6,18.2,2.8,18.5,3.2,18.5z M11.4,17.7c-1-1-2.9-2.2-6-2.2c0,0-0.1,0-0.1,0L5.3,5
	c0,0,0.1,0,0.1,0c3.9,0,5.6,2.3,6,2.9V17.7z M3.8,6.3h0.4V16c0,0.2,0.1,0.3,0.2,0.4c0.1,0.1,0.3,0.2,0.4,0.2c2-0.1,3.5,0.3,4.6,0.9
	C7.9,17.1,6.6,17,5.6,17c-0.8,0-1.4,0.1-1.8,0.2L3.8,6.3z"/>
</svg>
