<?xml version="1.0" encoding="utf-8"?>
<!-- Generator: Adobe Illustrator 25.4.1, SVG Export Plug-In . SVG Version: 6.00 Build 0)  -->
<svg version="1.1" id="Layer_1" xmlns="http://www.w3.org/2000/svg" xmlns:xlink="http://www.w3.org/1999/xlink" x="0px" y="0px"
	 viewBox="0 0 24 24" style="enable-background:new 0 0 24 24;" xml:space="preserve">
<g>
	<path d="M11.7,8.6c0-1.7-1.4-3.1-3.1-3.1S5.5,6.9,5.5,8.6s1.4,3.1,3.1,3.1C10.3,11.7,11.7,10.3,11.7,8.6z M7.2,8.6
		c0-0.8,0.6-1.4,1.4-1.4c0.8,0,1.4,0.6,1.4,1.4C10,9.4,9.4,10,8.6,10S7.2,9.4,7.2,8.6z"/>
	<path d="M15.4,12.3c-1.7,0-3.1,1.4-3.1,3.1s1.4,3.1,3.1,3.1c1.7,0,3.1-1.4,3.1-3.1C18.5,13.7,17.1,12.3,15.4,12.3z M16.8,15.4
		c0,0.8-0.6,1.4-1.4,1.4c-0.8,0-1.4-0.6-1.4-1.4c0-0.8,0.6-1.4,1.4-1.4S16.8,14.6,16.8,15.4z"/>
	<path d="M15.6,6.7c-0.2-0.1-0.4-0.2-0.6-0.1c-0.2,0-0.4,0.2-0.5,0.4l-6.2,9.1c-0.1,0.1-0.1,0.3-0.1,0.5c0,0.2,0.1,0.4,0.3,0.6
		s0.4,0.3,0.6,0.3c0,0,0,0,0,0c0.3,0,0.5-0.1,0.7-0.4l6.2-9.1C16.1,7.5,16,7,15.6,6.7z"/>
	<path d="M12,1.4C6.2,1.4,1.4,6.2,1.4,12S6.2,22.6,12,22.6S22.6,17.8,22.6,12S17.8,1.4,12,1.4z M12,20.9c-4.9,0-8.9-4-8.9-8.9
		c0-4.9,4-8.9,8.9-8.9c4.9,0,8.9,4,8.9,8.9C20.9,16.9,16.9,20.9,12,20.9z"/>
</g>
</svg>
