<?xml version="1.0" encoding="utf-8"?>
<!-- Generator: Adobe Illustrator 25.4.1, SVG Export Plug-In . SVG Version: 6.00 Build 0)  -->
<svg version="1.1" id="Layer_1" xmlns="http://www.w3.org/2000/svg" xmlns:xlink="http://www.w3.org/1999/xlink" x="0px" y="0px"
	 viewBox="0 0 24 24" style="enable-background:new 0 0 24 24;" xml:space="preserve">
<path d="M4,16V4c0,0-1.8,0-2,0C0.7,4,0.6,2,2,2c0.2,0,3,0,3,0c0.6,0,1,0.4,1,1v12h12.4l2-8C20.4,7,8.7,7,8,7C6.7,7,6.8,5,8,5
	c1,0,13.7,0,13.7,0c0.6,0,1,0.4,1,1c0,0.1,0,0.2,0,0.2l-2.5,10c-0.1,0.4-0.5,0.8-1,0.8H5C4.4,17,4,16.6,4,16z M6,23
	c-1.1,0-2-0.9-2-2s0.9-2,2-2s2,0.9,2,2S7.1,23,6,23z M18,23c-1.1,0-2-0.9-2-2s0.9-2,2-2s2,0.9,2,2S19.1,23,18,23z"/>
<rect x="9.4" y="5" width="2" height="2"/>
</svg>
