<?xml version="1.0" encoding="utf-8"?>
<!-- Generator: Adobe Illustrator 25.4.1, SVG Export Plug-In . SVG Version: 6.00 Build 0)  -->
<svg version="1.0" id="Layer_1" xmlns="http://www.w3.org/2000/svg" xmlns:xlink="http://www.w3.org/1999/xlink" x="0px" y="0px"
	 viewBox="0 0 24 24" style="enable-background:new 0 0 24 24;" xml:space="preserve">
<g>
	<path d="M4,2.4c-0.3-0.3-0.8-0.3-1.2,0c-0.7,0.7-1,1.6-1,2.7c0,1.8,1,3.9,2.5,5.5L8,14.3c0.7,0.7,1.8,1,2.8,0.8
		c0.2-0.1,0.4,0,0.5,0.1l0.5,0.5c0.1,0.1,0.2,0.2,0.2,0.4v0.2c0,0.6,0.2,1.1,0.6,1.5l3.9,4c0.5,0.5,1.1,0.7,1.7,0.7
		c0.6,0,1.3-0.3,1.7-0.7c0.9-0.9,0.9-2.5,0-3.4L4,2.4z M12.9,14.5L12.4,14c-0.4-0.4-0.9-0.6-1.5-0.6c-0.2,0-0.4,0-0.6,0.1
		c-0.4,0.1-0.9,0-1.2-0.3L5.4,9.5c-1.2-1.2-2-2.9-2-4.3c0-0.2,0-0.5,0.1-0.9l15.2,15.2c0.2,0.1,0.2,0.3,0.2,0.6
		c0,0.2-0.1,0.4-0.2,0.6c-0.3,0.3-0.8,0.3-1.1,0l-3.9-4c-0.1-0.1-0.2-0.2-0.2-0.4V16C13.6,15.5,13.4,14.9,12.9,14.5z"/>
	<path d="M13.4,10c0.2,0,0.4-0.1,0.6-0.2l0.5-0.5c0.3-0.3,0.4-0.7,0.4-1.1V7.6c0-0.5,0.2-1,0.6-1.4l3.3-3.3C19,2.7,19,2.5,19,2.3
		S19,1.9,18.8,1.7c-0.3-0.3-0.8-0.3-1.2,0l-3.3,3.3c-0.7,0.7-1,1.6-1,2.5v0.6l-0.5,0.5c-0.3,0.3-0.3,0.8,0,1.2
		C13,10,13.2,10,13.4,10z"/>
	<path d="M22.3,5.2c-0.3-0.3-0.8-0.3-1.2,0l-3.3,3.3c-0.4,0.4-0.9,0.6-1.4,0.6h-0.6c-0.4,0-0.8,0.2-1.1,0.4L14.2,10
		c-0.3,0.3-0.3,0.8,0,1.2c0.2,0.2,0.4,0.2,0.6,0.2s0.4-0.1,0.6-0.2l0.5-0.5h0.6c1,0,1.9-0.4,2.5-1l3.3-3.3C22.6,6,22.6,5.5,22.3,5.2
		z"/>
	<path d="M15.9,8.1c0.2,0.2,0.4,0.2,0.6,0.2s0.4-0.1,0.6-0.2l3.5-3.5c0.2-0.2,0.2-0.4,0.2-0.6c0-0.2-0.1-0.4-0.2-0.6
		c-0.3-0.3-0.8-0.3-1.2,0l-3.5,3.5C15.6,7.2,15.6,7.8,15.9,8.1z"/>
	<path d="M9.6,16C9.6,16,9.6,16,9.6,16c-0.2,0-0.4,0.1-0.6,0.2l-4.3,4.3c-0.4,0.4-0.9,0.4-1.3,0c-0.4-0.4-0.4-0.9,0-1.3L7,15.7
		c0.2-0.2,0.2-0.4,0.2-0.6c0-0.2-0.1-0.4-0.2-0.6c-0.3-0.3-0.8-0.3-1.2,0l-3.6,3.6c-1,1-1,2.6,0,3.6c0.5,0.5,1.1,0.7,1.8,0.7
		c0.7,0,1.3-0.3,1.8-0.7l4.3-4.3c0.3-0.3,0.3-0.8,0-1.2C10,16.1,9.8,16,9.6,16z"/>
</g>
</svg>
