<?xml version="1.0" encoding="utf-8"?>
<!-- Generator: Adobe Illustrator 25.4.1, SVG Export Plug-In . SVG Version: 6.00 Build 0)  -->
<svg version="1.1" id="Layer_1" xmlns="http://www.w3.org/2000/svg" xmlns:xlink="http://www.w3.org/1999/xlink" x="0px" y="0px"
	 viewBox="0 0 24 24" style="enable-background:new 0 0 24 24;" xml:space="preserve">
<style type="text/css">
	.st0{fill-rule:evenodd;clip-rule:evenodd;}
</style>
<path d="M21,6.4V5.8c0-1.2-1-2.2-2.1-2.2h-1.4l-0.3-0.9c-0.1-0.4-0.6-0.6-1-0.5l-3.6,1.3H3.3c-1.2,0-2.2,1-2.2,2.2v13.2
	c0,0.7,0.3,1.3,0.8,1.8c0.5,0.5,1.1,0.8,1.8,0.8h16.4c1.4,0,2.6-1.2,2.6-2.6V8.6C22.8,7.5,22,6.6,21,6.4z M18,5.3h0.9
	c0.3,0,0.6,0.3,0.6,0.6v0.6h-1L18,5.3z M2.7,7.9C2.9,8,3.1,8,3.3,8h17.3c0.3,0,0.6,0.3,0.6,0.6v2.6h-1.5c-1,0-3,0-3,2.8
	c0,3.2,2,3.2,3,3.2h1.5v1.8c0,0.6-0.5,1-1,1H3.8c-0.6,0-1-0.5-1-1V7.9z M19.8,12.8h1.5v2.9h-1.5c-0.4,0-1.4-0.1-1.4-1.5
	C18.3,12.9,19.3,12.8,19.8,12.8z M4.9,6.4H3.3C3,6.4,2.7,6.2,2.7,5.8c0-0.3,0.3-0.6,0.6-0.6h4.8L4.9,6.4z M9.5,6.4l6.4-2.3l0.8,2.3
	H9.5z"/>
<rect x="19.5" y="13.8" class="st0" width="0.9" height="0.9"/>
</svg>
