<?xml version="1.0" encoding="utf-8"?>
<!-- Generator: Adobe Illustrator 25.4.1, SVG Export Plug-In . SVG Version: 6.00 Build 0)  -->
<svg version="1.1" id="Layer_1" xmlns="http://www.w3.org/2000/svg" xmlns:xlink="http://www.w3.org/1999/xlink" x="0px" y="0px"
	 viewBox="0 0 24 24" style="enable-background:new 0 0 24 24;" xml:space="preserve">
<path d="M21.3,8.5h-1.4V8.1c0-0.8-0.6-1.3-1.3-1.3h-2.5c-0.8,0-1.3,0.6-1.3,1.3v3.2H9.2V8.1c0-0.8-0.6-1.3-1.3-1.3H5.4
	c-0.8,0-1.3,0.6-1.3,1.3v0.5l-1.4,0c-0.3,0-0.6,0-0.9,0.3C1.5,9.1,1.4,9.5,1.4,9.9v4.3c0,0.8,0.6,1.3,1.3,1.3h1.4V16
	c0,0.8,0.6,1.3,1.3,1.3h2.5c0.8,0,1.3-0.6,1.3-1.3v-3.2h5.6V16c0,0.8,0.6,1.3,1.3,1.3h2.5c0.8,0,1.3-0.6,1.3-1.3v-0.5h1.4
	c0.8,0,1.3-0.6,1.3-1.3V9.9C22.6,9.1,22,8.5,21.3,8.5z M21.1,10.1v3.8h-1v-3.8H21.1z M18.4,8.3v7.4h-2V8.3H18.4z M7.6,8.3v7.4h-2
	V8.3H7.6z M4,10.1v3.8H2.9v-3.8H4z"/>
</svg>
