<?xml version="1.0" encoding="utf-8"?>
<!-- Generator: Adobe Illustrator 25.4.1, SVG Export Plug-In . SVG Version: 6.00 Build 0)  -->
<svg version="1.1" id="Layer_1" xmlns="http://www.w3.org/2000/svg" xmlns:xlink="http://www.w3.org/1999/xlink" x="0px" y="0px"
	 viewBox="0 0 24 24" style="enable-background:new 0 0 24 24;" xml:space="preserve">
<g>
	<path d="M11.4,15.4h1.1c0.1,0,0.2,0.1,0.2,0.2c0,0.1-0.1,0.2-0.2,0.2H9.9c-0.2,0-0.3,0.2-0.3,0.3v1.1c0,0.2,0.2,0.3,0.3,0.3h1.3
		v0.7c0,0.2,0.2,0.3,0.3,0.3h1.1c0.2,0,0.3-0.2,0.3-0.3v-0.7c0.9-0.2,1.6-0.9,1.6-1.9c0-1-0.9-1.9-1.9-1.9h-1.1
		c-0.1,0-0.2-0.1-0.2-0.2s0.1-0.2,0.2-0.2h2.6c0.2,0,0.3-0.2,0.3-0.3v-1.1c0-0.1-0.1-0.3-0.3-0.3h-1.3v-0.7c0-0.2-0.2-0.3-0.3-0.3
		h-1.1c-0.2,0-0.3,0.2-0.3,0.3v0.7c-0.9,0.2-1.6,0.9-1.6,1.9C9.5,14.5,10.4,15.4,11.4,15.4z"/>
	<path d="M18.5,8.7c-0.9-1.2-1.8-2.2-2.7-3.2l0,0l1.7-2.6c0.1-0.2,0.1-0.5,0.1-0.6c0,0,0-0.1,0-0.1c-0.1-0.2-0.3-0.4-0.5-0.5
		c-0.6-0.3-1.3-0.5-2-0.5h-0.5c-0.3,0-0.7,0.1-1,0.2l0,0c-0.4,0.1-0.8,0.2-1.2,0.3c-0.7,0.1-1.3,0-1.9-0.2c0,0,0,0,0,0
		c0,0-0.1,0-0.1,0c-0.1,0-0.1-0.1-0.2-0.1c-0.9-0.2-2-0.3-3.2,0.3C6.7,1.7,6.5,2,6.4,2.2c-0.1,0.3,0,0.6,0.1,0.7l1.7,2.6
		C7.3,6.3,6.5,7.3,5.5,8.7c-2.2,2.9-3.3,5.7-3.3,8c0,2.7,1.2,4.5,3.4,5.4c1.8,0.7,4,0.7,6.1,0.7h0.7c2.1,0,4.2,0,6.1-0.7
		c1.6-0.6,3.4-2.1,3.4-5.4C21.8,14.3,20.6,11.5,18.5,8.7z M9.6,6.6L9.6,6.6l4.6-0.1l0.1,0.1C14.7,7,15.9,8.1,17,9.7
		c1.9,2.6,3,5.1,3,7c0,2.1-0.6,3.1-2.4,3.8c-1.5,0.6-3.8,0.6-5.6,0.6c-1.9,0-4.2,0-5.7-0.6c-1.7-0.7-2.4-1.7-2.4-3.8
		c0-1.9,1-4.3,3-7C8,8.1,9.2,7,9.6,6.6z M14.2,4.8H9.8L8.6,3c0.3,0,0.6,0,1,0c0,0,0.1,0,0.1,0c0.1,0,0.1,0.1,0.2,0.1
		c0.7,0.2,1.6,0.4,2.7,0.2c0.7-0.1,1.2-0.2,1.5-0.3c0.1,0,0.2-0.1,0.3-0.1c0.1,0,0.2-0.1,0.3-0.1c0.1,0,0.1,0,0.2,0l0,0
		c0.1,0,0.2,0,0.3,0L14.2,4.8z M15,2.9L15,2.9C15,2.9,15,2.9,15,2.9L15,2.9z"/>
</g>
</svg>
