<?xml version="1.0" encoding="utf-8"?>
<!-- Generator: Adobe Illustrator 25.4.1, SVG Export Plug-In . SVG Version: 6.00 Build 0)  -->
<svg version="1.1" id="Layer_1" xmlns="http://www.w3.org/2000/svg" xmlns:xlink="http://www.w3.org/1999/xlink" x="0px" y="0px"
	 viewBox="0 0 24 24" style="enable-background:new 0 0 24 24;" xml:space="preserve">
<g>
	<path d="M20.9,5.8L20.9,5.8L20.8,4c0-1.4-1.2-2.6-2.6-2.6H5.7C4.3,1.4,3.2,2.5,3.2,4v1.9H3.1c-0.9,0-1.7,0.8-1.7,1.7v2.7
		c0,0.4,0.4,0.8,0.8,0.8S3,10.7,3,10.2V7.5c0-0.1,0-0.1,0.1-0.1h0.1v10.8c0,1.1,0.7,2.1,1.8,2.4v0.2c0,0.9,0.8,1.7,1.7,1.7h0.9
		c0.9,0,1.7-0.8,1.7-1.7v-0.1h5.6v0.1c0,0.9,0.8,1.7,1.7,1.7h0.9c0.9,0,1.7-0.8,1.7-1.7v-0.2c1.1-0.3,1.8-1.3,1.8-2.4V7.4h0.1
		c0.1,0,0.1,0,0.1,0.1v2.7c0,0.4,0.4,0.8,0.8,0.8s0.8-0.4,0.8-0.8V7.5C22.6,6.6,21.9,5.8,20.9,5.8z M17.5,20.8L17.5,20.8
		c0,0.2,0,0.2-0.1,0.2h-0.9c-0.1,0-0.1,0-0.1-0.1v-0.1H17.5z M7.6,20.8L7.6,20.8c0,0.2,0,0.2-0.1,0.2H6.6c-0.1,0-0.1,0-0.1-0.1v-0.1
		H7.6z M4.8,4c0-0.5,0.4-1,1-1h12.5c0.5,0,1,0.4,1,1v0.1L4.8,4L4.8,4z M19.2,5.6v6.5H4.8V5.6H19.2z M17.3,16.5c0-0.5,0.4-1,1-1h1
		v1.1L17.3,16.5L17.3,16.5z M15.7,16.5v0.9c0,0.4,0.4,0.8,0.8,0.8h2.8v0.1c0,0.5-0.4,1-1,1H5.7c-0.5,0-1-0.4-1-1v-0.1h2.8
		c0.4,0,0.8-0.4,0.8-0.8v-0.9c0-1.4-1.2-2.6-2.6-2.6h-1v-0.2h14.5v0.2h-1C16.8,13.9,15.7,15,15.7,16.5z M6.7,16.5L6.7,16.5l-2,0.1
		v-1.1h1C6.3,15.5,6.7,15.9,6.7,16.5z"/>
	<path d="M12.9,16.6h-1.8c-0.4,0-0.8,0.4-0.8,0.8s0.4,0.8,0.8,0.8h1.8c0.4,0,0.8-0.4,0.8-0.8S13.3,16.6,12.9,16.6z"/>
</g>
</svg>
